<?xml version="1.0" encoding="UTF-8" standalone="no"?>
<!DOCTYPE svg PUBLIC "-//W3C//DTD SVG 1.1//EN"
 "http://www.w3.org/Graphics/SVG/1.1/DTD/svg11.dtd">
<!-- Generated by graphviz version 2.38.0 (20140413.2041)
 -->
<!-- Title: dependency&#45;cruiser output Pages: 1 -->
<svg width="270pt" height="136pt"
 viewBox="0.00 0.00 270.00 136.00" xmlns="http://www.w3.org/2000/svg" xmlns:xlink="http://www.w3.org/1999/xlink">
<g id="graph0" class="graph" transform="scale(1 1) rotate(0) translate(4 132)">
<title>dependency&#45;cruiser output</title>
<g id="clust1" class="cluster"><title>cluster_src</title>
<path fill="#ffffff" stroke="black" stroke-width="2" d="M27,-68C27,-68 242,-68 242,-68 248,-68 254,-74 254,-80 254,-80 254,-108 254,-108 254,-114 248,-120 242,-120 242,-120 27,-120 27,-120 21,-120 15,-114 15,-108 15,-108 15,-80 15,-80 15,-74 21,-68 27,-68"/>
<text text-anchor="middle" x="134.5" y="-108.8" font-family="Helvetica,sans-Serif" font-weight="bold" font-size="9.00">src</text>
</g>
<g id="clust2" class="cluster"><title>cluster_test</title>
<path fill="#ffffff" stroke="black" stroke-width="2" d="M20,-8C20,-8 80,-8 80,-8 86,-8 92,-14 92,-20 92,-20 92,-48 92,-48 92,-54 86,-60 80,-60 80,-60 20,-60 20,-60 14,-60 8,-54 8,-48 8,-48 8,-20 8,-20 8,-14 14,-8 20,-8"/>
<text text-anchor="middle" x="50" y="-48.8" font-family="Helvetica,sans-Serif" font-weight="bold" font-size="9.00">test</text>
</g>
<!-- src/app.js -->
<g id="node1" class="node"><title>src/app.js</title>
<g id="a_node1"><a xlink:href="src/app.js" xlink:title="app.js">
<path fill="#ffffcc" stroke="black" d="M71,-94C71,-94 29,-94 29,-94 26,-94 23,-91 23,-88 23,-88 23,-82 23,-82 23,-79 26,-76 29,-76 29,-76 71,-76 71,-76 74,-76 77,-79 77,-82 77,-82 77,-88 77,-88 77,-91 74,-94 71,-94"/>
<text text-anchor="middle" x="50" y="-82.8" font-family="Helvetica,sans-Serif" font-size="9.00">app.js</text>
</a>
</g>
</g>
<!-- src/bugsy.js -->
<g id="node2" class="node"><title>src/bugsy.js</title>
<g id="a_node2"><a xlink:href="src/bugsy.js" xlink:title="bugsy.js">
<path fill="#ffffcc" stroke="black" d="M148,-94C148,-94 106,-94 106,-94 103,-94 100,-91 100,-88 100,-88 100,-82 100,-82 100,-79 103,-76 106,-76 106,-76 148,-76 148,-76 151,-76 154,-79 154,-82 154,-82 154,-88 154,-88 154,-91 151,-94 148,-94"/>
<text text-anchor="middle" x="127" y="-82.8" font-family="Helvetica,sans-Serif" font-size="9.00">bugsy.js</text>
</a>
</g>
</g>
<!-- src/app.js&#45;&gt;src/bugsy.js -->
<g id="edge1" class="edge"><title>src/app.js&#45;&gt;src/bugsy.js</title>
<path fill="none" stroke="#999999" d="M77.2314,-85C82.8588,-85 88.8594,-85 94.6581,-85"/>
<polygon fill="#999999" stroke="#999999" points="94.9101,-86.7501 99.9101,-85 94.9101,-83.2501 94.9101,-86.7501"/>
</g>
<!-- src/mostWanted.js -->
<g id="node3" class="node"><title>src/mostWanted.js</title>
<g id="a_node3"><a xlink:href="src/mostWanted.js" xlink:title="mostWanted.js">
<path fill="#ffffcc" stroke="black" d="M240,-94C240,-94 173,-94 173,-94 170,-94 167,-91 167,-88 167,-88 167,-82 167,-82 167,-79 170,-76 173,-76 173,-76 240,-76 240,-76 243,-76 246,-79 246,-82 246,-82 246,-88 246,-88 246,-91 243,-94 240,-94"/>
<text text-anchor="middle" x="206.5" y="-82.8" font-family="Helvetica,sans-Serif" font-size="9.00">mostWanted.js</text>
</a>
</g>
</g>
<!-- src/bugsy.js&#45;&gt;src/mostWanted.js -->
<g id="edge2" class="edge"><title>src/bugsy.js&#45;&gt;src/mostWanted.js</title>
<path fill="none" stroke="#999999" d="M154.238,-85C156.637,-85 159.107,-85 161.607,-85"/>
<polygon fill="#999999" stroke="#999999" points="161.764,-86.7501 166.764,-85 161.764,-83.2501 161.764,-86.7501"/>
</g>
<!-- test/bugsy.test.js -->
<g id="node4" class="node"><title>test/bugsy.test.js</title>
<g id="a_node4"><a xlink:href="test/bugsy.test.js" xlink:title="bugsy.test.js">
<path fill="#ffffcc" stroke="black" d="M78,-34C78,-34 22,-34 22,-34 19,-34 16,-31 16,-28 16,-28 16,-22 16,-22 16,-19 19,-16 22,-16 22,-16 78,-16 78,-16 81,-16 84,-19 84,-22 84,-22 84,-28 84,-28 84,-31 81,-34 78,-34"/>
<text text-anchor="middle" x="50" y="-22.8" font-family="Helvetica,sans-Serif" font-size="9.00">bugsy.test.js</text>
</a>
</g>
</g>
<!-- test/bugsy.test.js&#45;&gt;src/bugsy.js -->
<g id="edge3" class="edge"><title>test/bugsy.test.js&#45;&gt;src/bugsy.js</title>
<path fill="none" stroke="#999999" d="M62.3909,-34.1127C75.1659,-44.3328 95.9665,-60.9732 110.283,-72.4265"/>
<polygon fill="#999999" stroke="#999999" points="109.504,-74.0445 114.502,-75.8015 111.691,-71.3115 109.504,-74.0445"/>
</g>
</g>
</svg>
